<svg width="152" height="156" viewBox="0 0 152 156" fill="none" xmlns="http://www.w3.org/2000/svg">
<path d="M0 87.5V48.5L55 0L92 0.5L152 51.287L141 54.5L89 10.5H72.2699L81 18.5L73 27L57 12.5L9 55.5V87.5V124.949H25V60.6607L58.5 30.5L80 49.5L70.5 54L59 43.5L34 67V124.949V146.5H75.7392H117V134.5H50V110.5V72.5L70.5 54L80 49.5L102 69V103.5H117V65.5L73 27L81 18.5L126.5 59V113.5H92V103.5V73L78 61L60 77V103.5H92V113.5H60V125.5H141V54.5L152 51.287V134.5H126V143.5V155.5H25V134.5H0V87.5Z" fill="#0D6EFD"/>
</svg>
